<?xml version="1.0" encoding="utf-8"?>
<!-- Generator: Adobe Illustrator 25.2.0, SVG Export Plug-In . SVG Version: 6.00 Build 0)  -->
<svg version="1.1" id="Layer_1" xmlns="http://www.w3.org/2000/svg" xmlns:xlink="http://www.w3.org/1999/xlink" x="0px" y="0px"
	 viewBox="0 0 1920 1080" style="enable-background:new 0 0 1920 1080;" xml:space="preserve">
<style type="text/css">
	.st0{display:none;}
	.st1{fill:url(#SVGID_1_);}
	.st2{fill:url(#SVGID_2_);}
	.st3{fill:url(#SVGID_3_);}
	.st4{fill:url(#SVGID_4_);}
	.st5{fill:url(#SVGID_5_);}
	.st6{fill:url(#SVGID_6_);}
	.st7{fill:url(#SVGID_7_);}
	.st8{fill:url(#SVGID_8_);}
	.st9{fill:url(#SVGID_9_);}
	.st10{fill:url(#SVGID_10_);}
	.st11{fill:url(#SVGID_11_);}
	.st12{fill:url(#SVGID_12_);}
	.st13{fill:url(#SVGID_13_);}
	.st14{fill:url(#SVGID_14_);}
	.st15{fill:url(#SVGID_15_);}
	.st16{fill:url(#SVGID_16_);}
	.st17{fill:url(#SVGID_17_);}
	.st18{fill:url(#SVGID_18_);}
	.st19{fill:none;}
</style>
<rect x="-0.33" class="st0" width="1920" height="1080"/>
<g>
	<linearGradient id="SVGID_1_" gradientUnits="userSpaceOnUse" x1="1198.8671" y1="623.27" x2="1584.8947" y2="261.6464">
		<stop  offset="0" style="stop-color:#1E40AF"/>
		<stop  offset="0.5497" style="stop-color:#2563EB"/>
		<stop  offset="1" style="stop-color:#93C5FD"/>
	</linearGradient>
	<path class="st1" d="M1451.1,387.11l-4.04,3.76C1448.24,389.45,1449.6,388.19,1451.1,387.11z"/>
	<linearGradient id="SVGID_2_" gradientUnits="userSpaceOnUse" x1="1325.5616" y1="758.5146" x2="1711.5894" y2="396.891">
		<stop  offset="0" style="stop-color:#1E40AF"/>
		<stop  offset="0.5497" style="stop-color:#2563EB"/>
		<stop  offset="1" style="stop-color:#93C5FD"/>
	</linearGradient>
	<path class="st2" d="M1589.37,511.6c-1.38,1.51-2.98,2.83-4.74,3.91L1589.37,511.6z"/>
	<linearGradient id="SVGID_3_" gradientUnits="userSpaceOnUse" x1="1198.8671" y1="623.27" x2="1584.8947" y2="261.6464">
		<stop  offset="0" style="stop-color:#1E40AF"/>
		<stop  offset="0.5497" style="stop-color:#2563EB"/>
		<stop  offset="1" style="stop-color:#93C5FD"/>
	</linearGradient>
	<path class="st3" d="M1451.1,387.11l-4.04,3.76C1448.24,389.45,1449.6,388.19,1451.1,387.11z"/>
	<linearGradient id="SVGID_4_" gradientUnits="userSpaceOnUse" x1="1325.5616" y1="758.5146" x2="1711.5894" y2="396.891">
		<stop  offset="0" style="stop-color:#1E40AF"/>
		<stop  offset="0.5497" style="stop-color:#2563EB"/>
		<stop  offset="1" style="stop-color:#93C5FD"/>
	</linearGradient>
	<path class="st4" d="M1589.37,511.6c-1.38,1.51-2.98,2.83-4.74,3.91L1589.37,511.6z"/>
	<linearGradient id="SVGID_5_" gradientUnits="userSpaceOnUse" x1="1305.1055" y1="558.3483" x2="1596.29" y2="305.4336">
		<stop  offset="6.819570e-07" style="stop-color:#1E409F"/>
		<stop  offset="0.4961" style="stop-color:#2563EB"/>
		<stop  offset="1" style="stop-color:#45C5FD"/>
	</linearGradient>
	<path class="st5" d="M1669.96,364.48h-46.04c3.03,5.03,4.77,10.93,4.77,17.23v124.78c0,12.93-5.43,19.83-17.82,29.89
		l-182.73,152.03c-7.31,6.07-18.2,4.81-23.93-2.77c-2.26-3-3.37-6.53-3.37-10.03c0-4.79,2.06-9.54,6.03-12.82l147.69-122.36
		l30.08-24.93c1.76-1.08,3.36-2.4,4.74-3.91l0.02-0.02c3.5-3.87,5.63-8.99,5.63-14.61v-90.38l-94.5,86.1v26.02h-58.65v-56.48h43.73
		l87.03-79.29h-108.57c-4.84,0-9.31,1.54-12.96,4.16c-1.5,1.09-2.86,2.35-4.04,3.76l-24.74,22.97l-36.93,34.28l-7.08,6.2
		c-16.63,14.55-41.8,13.37-56.99-2.68l-4.36-4.61l-20.22-21.72h-42.77v-66.26h66.26v45.56l23.72,26.24
		c2.58,2.86,6.99,3.07,9.84,0.48l76.29-68.16c1.42-1.86,3-3.57,4.72-5.14c6.75-6.13,15.7-9.85,25.52-9.85h134.85
		c6.76,0,13.04,2,18.31,5.44V308h56.48V364.48z"/>
	<linearGradient id="SVGID_6_" gradientUnits="userSpaceOnUse" x1="1434.7946" y1="358.0373" x2="1434.7946" y2="358.0373">
		<stop  offset="0" style="stop-color:#1E40AF"/>
		<stop  offset="0.5497" style="stop-color:#2563EB"/>
		<stop  offset="1" style="stop-color:#93C5FD"/>
	</linearGradient>
	<path class="st6" d="M1434.79,358.04"/>
	<linearGradient id="SVGID_7_" gradientUnits="userSpaceOnUse" x1="1198.8671" y1="623.27" x2="1584.8947" y2="261.6464">
		<stop  offset="0" style="stop-color:#1E40AF"/>
		<stop  offset="0.5497" style="stop-color:#2563EB"/>
		<stop  offset="1" style="stop-color:#93C5FD"/>
	</linearGradient>
	<path class="st7" d="M1451.1,387.11l-4.04,3.76C1448.24,389.45,1449.6,388.19,1451.1,387.11z"/>
	<linearGradient id="SVGID_8_" gradientUnits="userSpaceOnUse" x1="1176.3291" y1="604.0789" x2="1608.9464" y2="419.9392">
		<stop  offset="2.717173e-07" style="stop-color:#1E409F"/>
		<stop  offset="0.2509" style="stop-color:#1F44A8"/>
		<stop  offset="0.6557" style="stop-color:#214FC0"/>
		<stop  offset="1" style="stop-color:#235BD9"/>
	</linearGradient>
	<path class="st8" d="M1408.2,519.8v56.48h-56.48v-26.07l-63-59.74V606.7h13.03v57.57h-57.57V606.7h11.95V477.44
		c0-5.77,1.35-11.15,3.8-15.75c4.68-8.79,13.41-14.66,24.44-14.66c1.47,0,2.92,0.21,4.34,0.61c3.01,0.84,5.92,2.51,8.64,4.77
		l4.93,4.93c0.02,0.03,0.04,0.05,0.07,0.08l62.4,62.39H1408.2z"/>
	<linearGradient id="SVGID_9_" gradientUnits="userSpaceOnUse" x1="1162.0315" y1="583.9487" x2="1548.0592" y2="222.3251">
		<stop  offset="0" style="stop-color:#1E40AF"/>
		<stop  offset="0.5497" style="stop-color:#2563EB"/>
		<stop  offset="1" style="stop-color:#93C5FD"/>
	</linearGradient>
	<path class="st9" d="M1302.29,457.34l-4.93-4.93C1299.08,453.83,1300.73,455.5,1302.29,457.34z"/>
	<linearGradient id="SVGID_10_" gradientUnits="userSpaceOnUse" x1="1457.6016" y1="729.2908" x2="1648.9515" y2="607.8252">
		<stop  offset="0" style="stop-color:#1E40AF"/>
		<stop  offset="0.446" style="stop-color:#2563EB"/>
		<stop  offset="1" style="stop-color:#45C5FD"/>
	</linearGradient>
	<path class="st10" d="M1627.06,556.19v113.38c0,17.76-14.4,32.16-32.16,32.16h-50.81c-17.76,0-32.16-14.4-32.16-32.16V649.6
		l33.67-27.15v45.62h47.79v-84.72L1627.06,556.19z"/>
	<linearGradient id="SVGID_11_" gradientUnits="userSpaceOnUse" x1="1330.1606" y1="763.424" x2="1716.1884" y2="401.8004">
		<stop  offset="0" style="stop-color:#1E40AF"/>
		<stop  offset="0.5497" style="stop-color:#2563EB"/>
		<stop  offset="1" style="stop-color:#93C5FD"/>
	</linearGradient>
	<rect x="1349.54" y="697.93" class="st11" width="48.88" height="48.88"/>
	<linearGradient id="SVGID_12_" gradientUnits="userSpaceOnUse" x1="1325.5616" y1="758.5146" x2="1711.5894" y2="396.891">
		<stop  offset="0" style="stop-color:#1E40AF"/>
		<stop  offset="0.5497" style="stop-color:#2563EB"/>
		<stop  offset="1" style="stop-color:#93C5FD"/>
	</linearGradient>
	<path class="st12" d="M1589.37,511.6c-1.38,1.51-2.98,2.83-4.74,3.91L1589.37,511.6z"/>
</g>
<g>
	<linearGradient id="SVGID_13_" gradientUnits="userSpaceOnUse" x1="779.8176" y1="117.5581" x2="777.1401" y2="726.2468">
		<stop  offset="6.819570e-07" style="stop-color:#1E409F"/>
		<stop  offset="0.4961" style="stop-color:#2563EB"/>
		<stop  offset="1" style="stop-color:#45C5FD"/>
	</linearGradient>
	<path class="st13" d="M1115.57,589.21c-9.64,0-17.46,7.48-17.46,16.71v14.73h-79.72v-24.79h-22v24.79h-36v-24.79h-22v24.79h-35.01
		v-24.79h-21.99v24.79H556.71v-187h-33.05l-30.54,73.17h-3.03l-30.7-73.17h-32.56v174.99c0,8.8-7.13,15.94-15.93,15.94h-29.51v17
		h44.52c12.55,0,22.73-10.18,22.73-22.74V568h0.01V459.55l30.03,71.6h24.34l30.03-71.97v182.06l0.46-0.01l-0.12,0.35h622.95
		c9.64,0,17.45-7.5,17.45-16.73v-35.64H1115.57z M1159.66,621h-46.37v-9.88c0-4.24,3.63-7.67,8.11-7.67h38.26V621z"/>
	<linearGradient id="SVGID_14_" gradientUnits="userSpaceOnUse" x1="639.6216" y1="116.6145" x2="635.5364" y2="725.2953">
		<stop  offset="6.819570e-07" style="stop-color:#1E409F"/>
		<stop  offset="0.4961" style="stop-color:#2563EB"/>
		<stop  offset="1" style="stop-color:#45C5FD"/>
	</linearGradient>
	<path class="st14" d="M655.55,433.65h-38.93l-41.78,122.5h23.83l10.8-32.55h53.38l11.16,32.55h24.5L655.55,433.65z M616.15,503.46
		l16.54-49.84h6.17l17.09,49.84H616.15z"/>
	<linearGradient id="SVGID_15_" gradientUnits="userSpaceOnUse" x1="759.8623" y1="117.4215" x2="755.7772" y2="726.1023">
		<stop  offset="6.819570e-07" style="stop-color:#1E409F"/>
		<stop  offset="0.4961" style="stop-color:#2563EB"/>
		<stop  offset="1" style="stop-color:#45C5FD"/>
	</linearGradient>
	<path class="st15" d="M807.09,520.41c0,7.72-2.01,14.52-6.04,20.39c-4.03,5.87-9.76,10.43-17.2,13.68
		c-7.44,3.24-16.2,4.86-26.27,4.86c-10.85,0-19.99-1.73-27.43-5.2c-7.44-3.47-13.12-8.25-17.04-14.35c-3.91-6.09-5.87-13-5.87-20.72
		h23.33c0,3.24,0.89,6.4,2.68,9.48c1.79,3.08,4.67,5.57,8.64,7.47c3.97,1.9,9.2,2.85,15.69,2.85c5.82,0,10.69-0.84,14.6-2.52
		c3.92-1.68,6.83-3.88,8.73-6.63c1.9-2.74,2.85-5.84,2.85-9.31c0-4.36-1.84-7.86-5.54-10.49c-3.69-2.63-9.39-4.28-17.11-4.95
		l-10.74-0.84c-11.75-1-21.12-4.67-28.11-10.99c-6.99-6.32-10.49-14.68-10.49-25.09c0-7.83,1.85-14.57,5.54-20.22
		c3.69-5.65,8.86-10.01,15.52-13.09c6.66-3.07,14.46-4.61,23.41-4.61c9.29,0,17.29,1.62,24,4.86c6.71,3.25,11.91,7.81,15.6,13.68
		c3.7,5.87,5.54,12.78,5.54,20.73h-23.32c0-3.36-0.82-6.46-2.44-9.32c-1.62-2.85-4.02-5.14-7.21-6.88c-3.19-1.73-7.25-2.6-12.17-2.6
		c-4.7,0-8.61,0.78-11.74,2.35c-3.14,1.57-5.49,3.69-7.05,6.38c-1.57,2.68-2.35,5.59-2.35,8.72c0,3.81,1.4,7.14,4.19,9.99
		c2.8,2.85,7.22,4.5,13.26,4.95l10.74,1.01c8.73,0.67,16.39,2.51,22.99,5.53c6.6,3.02,11.72,7.11,15.35,12.25
		C805.27,506.93,807.09,513.14,807.09,520.41z"/>
	<linearGradient id="SVGID_16_" gradientUnits="userSpaceOnUse" x1="872.9572" y1="118.1805" x2="868.8721" y2="726.8613">
		<stop  offset="6.819570e-07" style="stop-color:#1E409F"/>
		<stop  offset="0.4961" style="stop-color:#2563EB"/>
		<stop  offset="1" style="stop-color:#45C5FD"/>
	</linearGradient>
	<path class="st16" d="M920.19,520.41c0,7.72-2.01,14.52-6.04,20.39s-9.76,10.43-17.2,13.68c-7.44,3.24-16.19,4.86-26.26,4.86
		c-10.85,0-20-1.73-27.44-5.2c-7.44-3.47-13.12-8.25-17.03-14.35c-3.92-6.09-5.88-13-5.88-20.72h23.33c0,3.24,0.9,6.4,2.69,9.48
		c1.78,3.08,4.67,5.57,8.64,7.47c3.97,1.9,9.2,2.85,15.69,2.85c5.81,0,10.68-0.84,14.6-2.52c3.91-1.68,6.82-3.88,8.72-6.63
		c1.91-2.74,2.86-5.84,2.86-9.31c0-4.36-1.85-7.86-5.54-10.49c-3.69-2.63-9.4-4.28-17.12-4.95l-10.74-0.84
		c-11.74-1-21.12-4.67-28.11-10.99c-6.99-6.32-10.48-14.68-10.48-25.09c0-7.83,1.84-14.57,5.53-20.22
		c3.7-5.65,8.87-10.01,15.53-13.09c6.65-3.07,14.45-4.61,23.41-4.61c9.28,0,17.28,1.62,23.99,4.86c6.72,3.25,11.92,7.81,15.61,13.68
		s5.54,12.78,5.54,20.73h-23.33c0-3.36-0.81-6.46-2.43-9.32c-1.63-2.85-4.03-5.14-7.22-6.88c-3.19-1.73-7.24-2.6-12.16-2.6
		c-4.7,0-8.62,0.78-11.75,2.35c-3.13,1.57-5.48,3.69-7.05,6.38c-1.57,2.68-2.35,5.59-2.35,8.72c0,3.81,1.4,7.14,4.2,9.99
		c2.79,2.85,7.21,4.5,13.25,4.95l10.74,1.01c8.73,0.67,16.39,2.51,22.99,5.53c6.6,3.02,11.72,7.11,15.36,12.25
		C918.37,506.93,920.19,513.14,920.19,520.41z"/>
	<linearGradient id="SVGID_17_" gradientUnits="userSpaceOnUse" x1="993.8556" y1="118.9919" x2="989.7705" y2="727.6727">
		<stop  offset="6.819570e-07" style="stop-color:#1E409F"/>
		<stop  offset="0.4961" style="stop-color:#2563EB"/>
		<stop  offset="1" style="stop-color:#45C5FD"/>
	</linearGradient>
	<path class="st17" d="M1009.8,433.65h-38.93l-41.78,122.5h23.83l10.8-32.55h53.38l11.16,32.55h24.5L1009.8,433.65z M970.4,503.46
		l16.54-49.84h6.17l17.09,49.84H970.4z"/>
	<linearGradient id="SVGID_18_" gradientUnits="userSpaceOnUse" x1="1124.7507" y1="119.8704" x2="1120.6656" y2="728.5512">
		<stop  offset="6.819570e-07" style="stop-color:#1E409F"/>
		<stop  offset="0.4961" style="stop-color:#2563EB"/>
		<stop  offset="1" style="stop-color:#45C5FD"/>
	</linearGradient>
	<path class="st18" d="M1140.93,511.2c0.32-0.11,0.63-0.23,0.94-0.36c7.16-2.9,12.72-7.27,16.7-13.08
		c3.97-5.82,5.95-13.26,5.95-22.32v-2.69c0-8.95-1.95-16.39-5.87-22.32c-3.92-5.93-9.48-10.34-16.7-13.25
		c-7.21-2.91-15.74-4.37-25.59-4.37h-45.47v123.34h23.82v-40.94h21.65c0.18,0,0.36,0,0.53-0.01l28.84,40.95h27.86L1140.93,511.2z
		 M1137.67,485.67c-1.79,3.25-4.27,5.77-7.46,7.55c-3.19,1.8-6.97,2.69-11.33,2.69h-24.17v-42.79h24.17c4.36,0,8.14,0.89,11.33,2.68
		c3.19,1.79,5.67,4.31,7.46,7.55c1.79,3.25,2.69,7,2.69,11.25C1140.36,478.74,1139.46,482.43,1137.67,485.67z"/>
</g>
<line class="st19" x1="327.39" y1="502.8" x2="305.83" y2="507.15"/>
</svg>
